<svg width="29" height="29" viewBox="0 0 29 29" fill="none" xmlns="http://www.w3.org/2000/svg">
<line x1="17" y1="20.5" x2="20" y2="20.5" stroke="black"/>
<path d="M18.5 16L18.9713 15.8331H18.0287L18.5 16ZM17.25 19.5294L16.7787 19.3625L16.7787 19.3625L17.25 19.5294ZM16.625 21.2941L17.0963 21.461L17.0963 21.461L16.625 21.2941ZM18.0287 16.1669L19.2787 19.6963L20.2213 19.3625L18.9713 15.8331L18.0287 16.1669ZM19.2787 19.6963L20.5287 23.2257L21.4713 22.8919L20.2213 19.3625L19.2787 19.6963ZM18.0287 15.8331L16.7787 19.3625L17.7213 19.6963L18.9713 16.1669L18.0287 15.8331ZM16.7787 19.3625L16.1537 21.1272L17.0963 21.461L17.7213 19.6963L16.7787 19.3625ZM16.1537 21.1272L15.5287 22.8919L16.4713 23.2257L17.0963 21.461L16.1537 21.1272Z" fill="black"/>
<path d="M14 22.5H8.5V10.5M8.5 10.5L12.5 6.5M8.5 10.5H12.5V6.5M12.5 6.5H20.5V13.5" stroke="black"/>
</svg>
